<?xml version="1.0" standalone="no"?>
<!DOCTYPE svg PUBLIC "-//W3C//DTD SVG 20010904//EN"
 "http://www.w3.org/TR/2001/REC-SVG-20010904/DTD/svg10.dtd">
<svg version="1.0" xmlns="http://www.w3.org/2000/svg"
 width="1200.000000pt" height="1200.000000pt" viewBox="0 0 1200.000000 1200.000000"
 preserveAspectRatio="xMidYMid meet">

<g transform="translate(0.000000,1200.000000) scale(0.100000,-0.100000)"
fill="#282c34" stroke="none">
<path d="M0 6000 l0 -6000 6000 0 6000 0 0 6000 0 6000 -6000 0 -6000 0 0
-6000z m8123 3392 l237 -237 0 -1900 0 -1900 -237 -237 -238 -238 -1900 0
-1901 0 -237 238 -237 238 0 1894 0 1895 242 242 243 243 1895 0 1895 0 238
-238z m-2523 -5249 c58 -52 107 -99 108 -104 2 -5 -35 -9 -83 -9 l-86 0 -54
51 -55 51 -56 -51 -56 -51 -78 0 c-43 0 -81 3 -83 8 -3 4 43 51 101 104 l107
98 65 0 65 -1 105 -96z m-46 -240 c100 -267 356 -955 356 -959 0 -2 -53 -4
-118 -4 l-119 0 -32 100 -32 100 -181 -2 -181 -3 -32 -95 -32 -95 -121 -3
-122 -3 19 48 c10 26 94 253 186 503 93 250 173 461 178 468 6 8 41 12 107 12
l98 0 26 -67z m1051 57 c98 -15 184 -58 254 -127 94 -95 141 -221 141 -383 0
-254 -129 -439 -345 -496 -34 -9 -115 -14 -247 -14 l-198 0 0 515 0 515 163 0
c89 0 194 -5 232 -10z m-2915 -1746 c0 -50 2 -55 18 -49 41 18 70 17 91 -4 18
-18 21 -33 21 -111 0 -89 0 -90 -25 -90 -24 0 -24 2 -27 88 -3 84 -4 87 -27
90 -38 6 -51 -22 -51 -105 0 -71 -1 -73 -25 -73 l-25 0 0 148 c0 82 3 152 7
155 3 4 15 7 25 7 15 0 18 -8 18 -56z m4590 38 c0 -9 -10 -22 -22 -27 -26 -11
-32 -50 -8 -50 8 0 16 -8 18 -17 2 -13 -3 -18 -17 -18 -20 0 -21 -6 -21 -90 0
-89 0 -90 -25 -90 -25 0 -25 1 -25 90 0 73 -3 90 -15 90 -8 0 -15 9 -15 20 0
11 5 19 11 18 7 -2 16 11 21 29 9 36 42 63 75 63 15 0 23 -6 23 -18z m1988
-140 l3 -152 -26 0 -25 0 0 148 c0 82 3 152 7 156 4 4 14 5 23 4 13 -3 15 -27
18 -156z m232 140 c0 -9 -10 -22 -22 -27 -26 -11 -32 -50 -8 -50 8 0 16 -8 18
-17 2 -13 -3 -18 -17 -18 -20 0 -21 -6 -21 -90 0 -89 0 -90 -25 -90 -25 0 -25
1 -25 90 0 73 -3 90 -15 90 -8 0 -15 9 -15 20 0 11 5 19 11 18 7 -2 16 11 21
29 9 36 42 63 75 63 15 0 23 -6 23 -18z m-3541 -1 c19 -12 6 -41 -19 -41 -13
0 -20 7 -20 18 0 31 14 39 39 23z m-5459 -16 c38 -20 49 -59 27 -98 -15 -25
-15 -30 -3 -43 23 -23 28 -52 14 -81 -18 -39 -53 -53 -130 -53 l-68 0 0 145 0
145 65 0 c40 0 78 -6 95 -15z m3080 0 c38 -20 49 -59 27 -98 -15 -25 -15 -30
-3 -43 23 -23 28 -52 14 -81 -18 -39 -53 -53 -130 -53 l-68 0 0 145 0 145 65
0 c40 0 78 -6 95 -15z m360 -5 c0 -18 -7 -20 -70 -20 l-70 0 0 -40 0 -40 60 0
c53 0 60 -2 60 -20 0 -18 -7 -20 -60 -20 l-60 0 0 -45 0 -45 70 0 c63 0 70 -2
70 -20 0 -19 -7 -20 -95 -20 l-95 0 0 145 0 145 95 0 c88 0 95 -1 95 -20z
m284 -5 c14 -13 26 -31 26 -40 0 -22 -43 -19 -58 5 -16 27 -77 28 -91 1 -14
-26 5 -47 59 -66 61 -21 90 -51 90 -91 0 -45 -38 -74 -97 -74 -69 0 -113 30
-113 76 0 23 44 17 55 -8 7 -16 20 -24 43 -26 68 -7 87 49 25 74 -100 39 -131
71 -112 120 21 57 124 75 173 29z m356 5 c0 -17 -7 -20 -45 -20 l-45 0 0 -125
0 -125 -25 0 -25 0 0 125 0 125 -45 0 c-38 0 -45 3 -45 20 0 19 7 20 115 20
108 0 115 -1 115 -20z m-2080 -34 c3 -17 10 -29 15 -27 6 1 11 -5 13 -13 2 -9
-3 -16 -12 -16 -15 0 -18 -10 -18 -65 0 -62 3 -73 20 -77 33 -9 22 -38 -13
-38 -47 0 -55 15 -55 102 0 72 -2 78 -21 78 -14 0 -19 5 -17 18 2 9 10 17 18
17 9 0 16 11 18 28 5 40 45 34 52 -7z m-1674 -37 c17 -14 37 -85 29 -99 -3 -6
-35 -10 -71 -10 -65 0 -80 -10 -52 -38 15 -15 70 -16 84 -2 8 8 15 6 23 -4 17
-20 -22 -46 -72 -46 -58 0 -97 43 -97 107 0 53 19 89 54 104 26 11 83 4 102
-12z m273 6 c46 -23 56 -65 16 -65 -15 0 -25 6 -25 15 0 16 -43 31 -60 20 -22
-14 -31 -56 -20 -96 10 -34 14 -39 41 -39 17 0 32 6 35 15 7 17 54 21 54 5 0
-6 -11 -22 -25 -35 -18 -19 -35 -25 -65 -25 -62 0 -90 33 -90 105 0 49 4 60
29 86 33 32 67 37 110 14z m302 -11 c43 -39 42 -141 -2 -176 -25 -21 -96 -24
-120 -5 -26 20 -39 53 -39 102 0 39 5 52 30 77 27 27 36 30 71 25 22 -3 49
-13 60 -23z m190 14 c3 -4 20 -2 38 5 27 10 37 9 60 -4 24 -14 30 -14 46 -3
20 15 63 18 81 6 24 -16 34 -54 34 -131 0 -80 0 -81 -25 -81 -25 0 -25 1 -25
85 0 83 0 85 -27 91 -39 10 -53 -16 -53 -103 0 -71 -1 -73 -25 -73 -24 0 -24
2 -27 88 -3 84 -4 87 -27 90 -38 6 -51 -22 -51 -105 0 -69 -1 -73 -23 -73 -22
0 -22 3 -22 103 0 56 4 105 9 109 12 8 29 6 37 -4z m525 -9 c17 -14 37 -85 29
-99 -3 -6 -35 -10 -71 -10 -65 0 -80 -10 -52 -38 15 -15 70 -16 84 -2 8 8 15
6 23 -4 17 -20 -22 -46 -72 -46 -58 0 -97 43 -97 107 0 53 19 89 54 104 26 11
83 4 102 -12z m980 0 c17 -14 37 -85 29 -99 -3 -6 -35 -10 -71 -10 -65 0 -80
-10 -52 -38 15 -15 70 -16 84 -2 8 8 15 6 23 -4 17 -20 -22 -46 -72 -46 -58 0
-97 43 -97 107 0 53 19 89 54 104 26 11 83 4 102 -12z m1819 -52 c11 -36 22
-68 26 -71 3 -3 14 26 24 64 11 39 22 70 25 71 3 0 13 2 23 4 24 5 21 -15 -17
-120 -28 -78 -35 -90 -55 -90 -21 0 -28 12 -57 95 -35 100 -36 120 -7 116 13
-2 24 -22 38 -69z m371 52 c17 -14 37 -85 29 -99 -3 -6 -35 -10 -71 -10 -65 0
-80 -10 -52 -38 15 -15 70 -16 84 -2 8 8 15 6 23 -4 17 -20 -22 -46 -72 -46
-58 0 -97 43 -97 107 0 53 19 89 54 104 26 11 83 4 102 -12z m186 6 c5 -6 12
-5 20 3 21 21 48 15 48 -13 0 -20 -5 -25 -25 -25 -34 0 -45 -27 -45 -105 0
-63 -1 -66 -22 -63 -22 3 -23 7 -24 98 0 52 4 100 9 107 10 14 28 13 39 -2z
m309 -11 c10 -9 19 -23 19 -31 0 -18 -47 -16 -54 3 -8 21 -60 15 -64 -8 -2
-11 8 -20 35 -28 62 -20 83 -37 83 -70 0 -37 -32 -60 -85 -60 -47 0 -85 23
-85 51 0 25 25 24 51 -2 26 -26 63 -22 67 8 3 18 -4 24 -38 33 -45 12 -80 41
-80 65 0 9 12 28 26 42 21 21 32 25 66 20 22 -3 48 -13 59 -23z m182 17 c4 -1
7 -48 7 -106 l0 -105 -25 0 -25 0 0 109 c0 99 2 109 18 106 9 -2 20 -4 25 -4z
m288 -17 c43 -39 42 -141 -2 -176 -25 -21 -96 -24 -120 -5 -26 20 -39 53 -39
102 0 39 5 52 30 77 27 27 36 30 71 25 22 -3 49 -13 60 -23z m189 9 c0 -12 4
-11 22 1 31 22 64 20 88 -4 17 -17 20 -33 20 -110 0 -89 0 -90 -25 -90 -24 0
-24 2 -27 88 -3 80 -5 87 -24 90 -39 6 -54 -23 -54 -104 0 -72 -1 -74 -25 -74
l-25 0 0 104 c0 104 3 113 38 113 6 0 12 -7 12 -14z m581 -9 c43 -39 42 -141
-2 -176 -25 -21 -96 -24 -120 -5 -26 20 -39 53 -39 102 0 39 5 52 30 77 27 27
36 30 71 25 22 -3 49 -13 60 -23z m583 -42 c12 -33 24 -63 27 -66 3 -4 14 23
24 59 9 36 20 65 24 66 3 0 14 2 24 4 24 5 22 -6 -27 -145 -45 -128 -75 -170
-110 -157 -22 9 -20 34 4 42 41 13 42 38 5 141 -37 102 -38 124 -9 120 12 -2
25 -23 38 -64z m377 42 c43 -39 42 -141 -2 -176 -25 -21 -96 -24 -120 -5 -26
20 -39 53 -39 102 0 39 5 52 30 77 27 27 36 30 71 25 22 -3 49 -13 60 -23z
m189 -53 c0 -89 7 -104 46 -99 l29 3 3 83 c2 45 6 82 10 83 4 0 15 2 25 4 15
3 17 -7 17 -106 0 -102 -1 -109 -20 -109 -11 0 -20 5 -20 10 0 7 -6 7 -19 0
-23 -12 -71 -13 -88 -2 -21 13 -33 62 -33 132 0 46 4 70 13 73 33 11 37 4 37
-72z m302 64 c5 -6 12 -5 20 3 21 21 48 15 48 -13 0 -20 -5 -25 -25 -25 -34 0
-45 -27 -45 -105 0 -63 -1 -66 -22 -63 -22 3 -23 7 -24 98 0 52 4 100 9 107
10 14 28 13 39 -2z m319 -11 c10 -9 19 -23 19 -31 0 -18 -47 -16 -54 3 -8 21
-60 15 -64 -8 -2 -11 8 -20 35 -28 62 -20 83 -37 83 -70 0 -37 -32 -60 -85
-60 -47 0 -85 23 -85 51 0 25 25 24 51 -2 26 -26 63 -22 67 8 3 18 -4 24 -38
33 -45 12 -80 41 -80 65 0 9 12 28 26 42 21 21 32 25 66 20 22 -3 48 -13 59
-23z m285 5 c17 -14 37 -85 29 -99 -3 -6 -35 -10 -71 -10 -65 0 -80 -10 -52
-38 15 -15 70 -16 84 -2 8 8 15 6 23 -4 17 -20 -22 -46 -72 -46 -58 0 -97 43
-97 107 0 53 19 89 54 104 26 11 83 4 102 -12z m572 -172 c4 -20 -25 -34 -40
-19 -15 15 -1 44 19 40 10 -2 19 -11 21 -21z"/>
<path d="M4570 7250 l0 -1420 1420 0 1420 0 0 1420 0 1420 -1420 0 -1420 0 0
-1420z"/>
<path d="M5367 3507 c-31 -95 -57 -176 -57 -180 0 -4 52 -7 115 -7 87 0 115 3
115 13 0 12 -106 337 -113 343 -1 2 -28 -74 -60 -169z"/>
<path d="M6430 3449 l0 -331 88 4 c66 3 96 9 127 27 92 51 130 158 123 338 -5
96 -9 121 -32 167 -47 96 -102 126 -233 126 l-73 0 0 -331z"/>
<path d="M1390 2170 l0 -41 41 3 c80 6 80 70 0 76 l-41 3 0 -41z"/>
<path d="M1390 2045 l0 -45 38 0 c44 0 57 8 66 36 10 31 -18 54 -65 54 l-39 0
0 -45z"/>
<path d="M4470 2170 l0 -41 41 3 c27 2 46 9 53 21 18 28 -4 52 -53 55 l-41 3
0 -41z"/>
<path d="M4470 2045 l0 -45 38 0 c44 0 57 8 66 36 10 31 -18 54 -65 54 l-39 0
0 -45z"/>
<path d="M1732 2128 c-25 -25 -13 -38 33 -38 49 0 50 1 35 31 -12 21 -50 25
-68 7z"/>
<path d="M2300 2125 c-7 -9 -13 -33 -13 -55 0 -47 16 -70 49 -70 48 0 69 82
33 127 -15 18 -54 17 -69 -2z"/>
<path d="M3022 2128 c-25 -25 -13 -38 33 -38 49 0 50 1 35 31 -12 21 -50 25
-68 7z"/>
<path d="M4002 2128 c-25 -25 -13 -38 33 -38 49 0 50 1 35 31 -12 21 -50 25
-68 7z"/>
<path d="M6192 2128 c-25 -25 -13 -38 33 -38 49 0 50 1 35 31 -12 21 -50 25
-68 7z"/>
<path d="M7150 2125 c-7 -9 -13 -33 -13 -55 0 -47 16 -70 49 -70 48 0 69 82
33 127 -15 18 -54 17 -69 -2z"/>
<path d="M7920 2125 c-7 -9 -13 -33 -13 -55 0 -47 16 -70 49 -70 48 0 69 82
33 127 -15 18 -54 17 -69 -2z"/>
<path d="M8880 2125 c-7 -9 -13 -33 -13 -55 0 -47 16 -70 49 -70 48 0 69 82
33 127 -15 18 -54 17 -69 -2z"/>
<path d="M9982 2128 c-25 -25 -13 -38 33 -38 49 0 50 1 35 31 -12 21 -50 25
-68 7z"/>
</g>
</svg>
